<svg width="18" height="21" viewBox="0 0 18 21" fill="none" xmlns="http://www.w3.org/2000/svg">
  <path
    d="M12.8411 11.1098C14.3179 11.8078 15.5771 12.8943 16.4839 14.2529C17.3907 15.6116 17.911 17.1912 17.9891 18.8228C17.9994 18.9723 17.9797 19.1223 17.9313 19.2641C17.8828 19.4058 17.8065 19.5365 17.7068 19.6484C17.6072 19.7603 17.4862 19.8511 17.3509 19.9156C17.2157 19.9801 17.0689 20.0169 16.9193 20.0239C16.7696 20.0309 16.6201 20.0079 16.4794 19.9563C16.3387 19.9047 16.2098 19.8256 16.1001 19.7235C15.9905 19.6214 15.9023 19.4984 15.8408 19.3617C15.7794 19.2251 15.7458 19.0776 15.7421 18.9278C15.6603 17.1946 14.9143 15.5594 13.6588 14.3618C12.4032 13.1641 10.7347 12.4959 8.99961 12.4959C7.26447 12.4959 5.59597 13.1641 4.34046 14.3618C3.08496 15.5594 2.33888 17.1946 2.25711 18.9278C2.2369 19.2212 2.10263 19.495 1.88304 19.6906C1.66345 19.8862 1.376 19.988 1.08225 19.9743C0.788505 19.9605 0.511809 19.8323 0.311416 19.6171C0.111024 19.4019 0.00286702 19.1168 0.010107 18.8228C0.0878983 17.1913 0.607904 15.6117 1.51446 14.2531C2.42102 12.8944 3.67999 11.8079 5.15661 11.1098C4.21013 10.3203 3.5298 9.25848 3.20819 8.06867C2.88657 6.87886 2.93926 5.61885 3.3591 4.46005C3.77895 3.30125 4.54556 2.29991 5.55465 1.59223C6.56375 0.884545 7.76634 0.504883 8.99886 0.504883C10.2314 0.504883 11.434 0.884545 12.4431 1.59223C13.4522 2.29991 14.2188 3.30125 14.6386 4.46005C15.0585 5.61885 15.1111 6.87886 14.7895 8.06867C14.4679 9.25848 13.7876 10.3203 12.8411 11.1098ZM12.7496 6.5003C12.7496 5.50574 12.3545 4.55191 11.6513 3.84865C10.948 3.14539 9.99417 2.7503 8.99961 2.7503C8.00504 2.7503 7.05122 3.14539 6.34796 3.84865C5.64469 4.55191 5.24961 5.50574 5.24961 6.5003C5.24961 7.49487 5.64469 8.44869 6.34796 9.15195C7.05122 9.85522 8.00504 10.2503 8.99961 10.2503C9.99417 10.2503 10.948 9.85522 11.6513 9.15195C12.3545 8.44869 12.7496 7.49487 12.7496 6.5003Z"
    fill="#06162E" />
</svg>